PathFileType	4	(X/Y/Z)	E:\Marcel_BSc\Ayumi_22_01_2025\22-01-2025\sumo_dl_3.trc
DataRate	CameraRate	NumFrames	NumMarkers	Units	OrigDataRate	OrigDataStartFrame	OrigNumFrames
200.0	200.0	8	47	mm	200.0	293	2336	
Frame#	Time	FHD			LBHD			RBHD			RBAR			LBAR			RSACR			LSACR			USACR			C7			CLAV			T10			RSHO			LSHO			LTHI1			LTHI3			LTHI2			LTIB1			LTIB2			LTIB3			LMMAL			LLMAL			LHEE			LMT1			LMT5			LMT3			RTHI1			RTHI2			RTHI3			RTIB1			RTIB3			RTIB2			RLMAL			RMMAL			RHEE			RMT5			RMT1			RMT3			LDUPA			LMUPA			LUUPA			LRAD			RUL			RUFIN			RRAD			RMUPA			RDUPA			RUUPA			
		X1	Y1	Z1	X2	Y2	Z2	X3	Y3	Z3	X4	Y4	Z4	X5	Y5	Z5	X6	Y6	Z6	X7	Y7	Z7	X8	Y8	Z8	X9	Y9	Z9	X10	Y10	Z10	X11	Y11	Z11	X12	Y12	Z12	X13	Y13	Z13	X14	Y14	Z14	X15	Y15	Z15	X16	Y16	Z16	X17	Y17	Z17	X18	Y18	Z18	X19	Y19	Z19	X20	Y20	Z20	X21	Y21	Z21	X22	Y22	Z22	X23	Y23	Z23	X24	Y24	Z24	X25	Y25	Z25	X26	Y26	Z26	X27	Y27	Z27	X28	Y28	Z28	X29	Y29	Z29	X30	Y30	Z30	X31	Y31	Z31	X32	Y32	Z32	X33	Y33	Z33	X34	Y34	Z34	X35	Y35	Z35	X36	Y36	Z36	X37	Y37	Z37	X38	Y38	Z38	X39	Y39	Z39	X40	Y40	Z40	X41	Y41	Z41	X42	Y42	Z42	X43	Y43	Z43	X44	Y44	Z44	X45	Y45	Z45	X46	Y46	Z46	X47	Y47	Z47	
293	1.455	119.86459	1532.786	-996.16949	137.01463	1516.135	-936.0321	159.88068	1502.7792	-1066.6073	249.93439	236.60532	-2082.5044	255.92819	249.80194	137.74991	367.42621	892.91479	-1030.8038	370.18521	891.19812	-958.78235	361.2601	902.45612	-993.54102	316.87115	1328.1884	-987.00006	175.05299	1263.8794	-997.31335	349.63522	1050.3401	-992.81305	247.5988	1337.0675	-1132.4241	235.99136	1333.558	-846.60236	325.54663	580.68524	-734.75189	333.34967	515.97119	-727.33722	290.94324	531.42493	-705.76477	321.23767	244.89848	-586.85254	360.7272	228.93494	-614.09424	335.42865	182.92044	-575.77734	281.45682	67.888084	-593.53064	336.1748	72.792015	-543.38153	345.07767	30.892862	-591.07874	182.88318	44.024364	-481.86667				201.37856	42.039902	-452.51938	327.39932	580.02917	-1245.1803	293.27487	532.17053	-1275.2692	336.33121	516.60168	-1252.8376	333.13269	278.01483	-1375.1967	346.35596	214.51703	-1384.0225	371.40872	263.03894	-1346.2473	351.17392	72.608208	-1424.0245	279.6626	69.218513	-1393.4972	354.12964	28.611933	-1377.0043	266.65948	25.523222	-1547.5135	208.96944	35.986427	-1511.9824	230.75906	33.414139	-1534.6605	326.78891	1251.2593	-665.30402	295.59454	1290.2158	-663.85278	303.0238	1299.1254	-724.83624	268.9873	1254.2343	-333.60574	325.11563	1265.0204	-1630.4449	273.30447	1288.8739	-1707.3682	267.04752	1284.072	-1635.3606	322.80875	1297.3779	-1236.6251	327.60208	1287.9205	-1297.4152	344.94638	1253.9338	-1228.2841
294	1.46	119.08069	1532.3522	-996.32373	136.09636	1516.0571	-936.0625	159.01088	1502.616	-1066.6013	249.91197	236.5703	-2082.4609	255.93135	249.8045	137.74992	367.89444	893.28357	-1030.8101	370.74246	891.52844	-958.83051	361.80084	902.65924	-993.60785	316.18134	1328.3722	-986.94531	174.56641	1263.6459	-997.24213	349.66412	1050.5803	-992.83014	246.85762	1336.9495	-1132.4921	235.39609	1333.3596	-846.29803	326.2258	580.74176	-734.57892	333.47638	516.04779	-727.12115	291.24829	531.69458	-705.42688	321.15906	244.96997	-586.6554	360.57953	228.97328	-614.00171	335.31891	183.01224	-575.72156	281.42004	67.909416	-593.49524	336.1748	72.797981	-543.35565	345.08185	30.931978	-591.05896	182.89485	44.011288	-481.87338				201.36128	42.056728	-452.51953	327.57785	580.13251	-1245.689	293.28378	532.47742	-1275.8589	336.2262	516.62653	-1253.4374	332.85208	278.28659	-1375.8115	346.09317	214.66241	-1384.3583	371.04984	263.23563	-1346.6884	351.10483	72.648331	-1424.05	279.57492	69.256943	-1393.5376	354.13171	28.620039	-1376.9954	266.64716	25.535566	-1547.4921	208.9532	35.989689	-1511.9698	230.73422	33.410206	-1534.6572	326.53082	1250.542	-665.32751	295.20364	1289.4893	-663.66626	302.54727	1298.6372	-724.65265	268.88934	1252.2957	-333.63571	324.88779	1263.1622	-1630.2993	273.14722	1286.465	-1707.4087	266.44684	1282.5018	-1635.6204	322.26855	1297.0441	-1236.665	327.14343	1287.468	-1297.3733	344.57922	1253.7826	-1228.1107
295	1.465	118.15735	1532.0988	-996.38275	135.20424	1515.8157	-936.02631	158.114	1502.413	-1066.5732	249.9207	236.58096	-2082.4795	255.92691	249.79538	137.75107	368.46863	893.49109	-1030.9061	371.24429	891.87305	-958.84857	362.43442	902.75385	-993.74182	315.50967	1328.4564	-986.88574	174.00648	1263.3326	-997.19958	349.71249	1050.7927	-992.85095	246.07344	1336.8193	-1132.564	234.67548	1333.0553	-846.09735	326.74811	580.85089	-734.46082	333.74902	516.0545	-726.91113	291.83353	531.57916	-705.19067	321.3075	245.83632	-586.06091	360.36337	229.10132	-613.90887	335.24356	183.01979	-575.63281	281.40475	67.933151	-593.43744	336.19424	72.80014	-543.30756	345.09573	30.945595	-591.04456	182.89368	44.001793	-481.87646				201.36575	42.044987	-452.52213	327.79568	580.13654	-1246.3209	293.25311	532.71466	-1276.4945	335.96158	516.60718	-1253.9081	332.37662	278.85986	-1376.542	345.77286	214.76904	-1384.6549	370.5463	263.52267	-1347.1157	351.05609	72.715691	-1424.0774	279.47632	69.407822	-1393.6108	354.10559	28.6325	-1376.9941	266.64661	25.542767	-1547.4841	208.89792	36.010315	-1511.962	230.71396	33.405079	-1534.658	326.18024	1249.8575	-665.33624	294.72119	1288.7141	-663.48779	302.03577	1298.1674	-724.43597	268.79468	1250.326	-333.64148	324.65466	1261.238	-1630.1532	272.83401	1284.124	-1707.3577	266.17685	1280.3552	-1635.5824	321.76288	1296.7194	-1236.656	326.64465	1286.9264	-1297.3555	344.16452	1253.7148	-1227.896
296	1.47	117.01891	1532.2708	-996.19067	134.10797	1515.7561	-936.14948	157.2048	1502.188	-1066.5891	249.91093	236.60158	-2082.4978	255.92336	249.79221	137.74675	368.9939	893.81451	-1030.9365	371.75592	892.19507	-958.87354	363.01657	903.02686	-993.784	314.74292	1328.6044	-986.81812	173.44089	1263.0516	-997.11755	349.74081	1051.0233	-992.8714	245.31593	1336.6357	-1132.631	233.89825	1332.7494	-845.92072	327.15128	580.80548	-734.36676	334.04266	516.05646	-726.66333	292.08188	532.27533	-704.76685	321.26511	245.88762	-585.80542	360.22302	229.174	-613.80316	335.22437	183.00424	-575.5202	281.38107	67.973671	-593.43335	336.20074	72.81636	-543.26086	345.05481	30.973391	-591.0451	182.90305	44.013702	-481.88211				201.36177	42.075321	-452.51675	327.69037	580.74689	-1246.7994	293.16605	533.08643	-1277.1206	335.97501	516.71106	-1254.7098	331.96835	278.9895	-1377.0574	345.46002	214.88928	-1385.0785	370.12256	263.73782	-1347.5978	351.04303	72.732277	-1424.1084	279.39182	69.43512	-1393.6219	354.09836	28.664259	-1376.9927	266.62729	25.563612	-1547.489	208.89064	36.016441	-1511.9558	230.71133	33.42395	-1534.6542	325.83887	1249.1082	-665.34558	294.20871	1287.7885	-663.35846	301.46875	1297.5206	-724.26398	268.64178	1248.0845	-333.65793	324.38736	1259.1896	-1630.0128	272.53949	1281.4003	-1707.405	265.83939	1278.0936	-1635.5288	321.08426	1296.5908	-1236.5828	326.09299	1286.437	-1297.3136	343.82742	1253.4863	-1227.7412
297	1.475	116.08733	1531.8436	-996.24176	133.26849	1515.3555	-936.07507	156.20583	1501.953	-1066.5674	249.89627	236.59583	-2082.4998	255.92178	249.79993	137.74739	369.54193	894.18085	-1030.9377	372.44409	892.33063	-958.97144	363.53745	903.38519	-993.78772	314.04544	1328.6058	-986.83936	172.94362	1262.701	-997.08124	349.75864	1051.2922	-992.90179	244.49738	1336.4062	-1132.7211	233.1291	1332.427	-845.70514	327.78702	580.87097	-734.19794	334.28857	516.18207	-726.41522	292.52277	532.54108	-704.41803	321.21353	245.99275	-585.54242	360.07895	229.27684	-613.6319	335.14072	182.97891	-575.41156	281.38315	68.012474	-593.39398	336.2243	72.832504	-543.19031	345.07391	30.98049	-591.03644	182.9064	44.022274	-481.86978				201.33881	42.088951	-452.51526	328.20789	580.21179	-1247.5327	293.08636	533.45325	-1277.7214	335.5473	517.02521	-1255.3209	331.48962	279.11301	-1377.6467	345.06528	215.03171	-1385.4646	369.69803	263.99274	-1348.085	350.96564	72.799179	-1424.1406	279.30075	69.474091	-1393.6675	354.0755	28.665813	-1377.0024	266.66318	25.40291	-1547.4258	208.8927	36.027988	-1511.9366	230.70128	33.415794	-1534.657	325.16296	1248.4062	-665.37231	293.67947	1286.9128	-663.19708	300.95282	1296.9935	-724.06433	268.40982	1245.9058	-333.69171	324.14587	1257.5076	-1629.634	272.17285	1278.9137	-1707.2776	265.4614	1275.728	-1635.5399	320.47919	1296.1553	-1236.6351	325.53119	1285.937	-1297.2449	343.427	1253.2091	-1227.6144
298	1.48	114.90352	1531.8136	-996.14294	132.14705	1515.2	-936.06659	155.15001	1501.6973	-1066.5626	249.89172	236.6377	-2082.5964	255.91641	249.7995	137.74294	370.2243	894.23077	-1031.0348	372.96326	892.70648	-958.99573	364.11145	903.65118	-993.83966	313.24576	1328.772	-986.74066	172.39722	1262.3418	-996.98474	349.81754	1051.4877	-992.92065	243.63194	1336.1431	-1132.8369	232.07693	1331.6245	-845.78583	328.80789	581.48352	-733.49353	334.63748	516.20532	-726.15143	292.94971	532.80005	-704.07343	321.05447	246.07889	-585.28729	359.95099	229.34015	-613.47516	335.09015	183.05397	-575.28308	281.36627	68.053452	-593.35101	336.24689	72.859825	-543.13068	345.03583	31.032635	-591.0174	182.90933	44.039318	-481.88135				201.33072	42.127762	-452.49884	328.37457	580.27679	-1248.0526	293.02524	533.77161	-1278.4109	335.47562	516.74329	-1255.9045	331.12598	278.80438	-1377.9338	344.7952	215.17024	-1385.821	369.23151	264.32315	-1348.5225	350.90204	72.851486	-1424.1868	279.28253	69.438103	-1393.6942	354.07349	28.681019	-1377.0055	266.64984	25.404902	-1547.42	208.89339	36.060131	-1511.9305	230.70912	33.444386	-1534.6357	325.01334	1247.5466	-665.42419	293.11588	1285.9078	-663.05457	300.32703	1296.2729	-723.86218	268.14771	1243.5388	-333.81784	323.84131	1255.4952	-1629.3826	271.71854	1276.1121	-1707.2703	265.07788	1273.3077	-1635.4432	319.95117	1295.7502	-1236.5934	324.9278	1285.3652	-1297.1771	342.88763	1253.142	-1227.3823
299	1.485	113.99915	1530.8447	-996.43616	131.12413	1514.8645	-935.94958	154.11253	1501.4081	-1066.5422	249.89354	236.59813	-2082.4919	255.91322	249.79755	137.73946	370.82187	894.51135	-1031.0967	373.63293	892.94952	-959.04199	364.79074	903.80603	-993.93854	312.48123	1328.8081	-986.73047	171.78987	1261.9435	-996.90771	349.86633	1051.6844	-992.95502	242.86388	1335.7701	-1132.9443	231.26183	1331.3794	-845.52673	329.00778	580.82416	-733.92474	334.89429	516.23639	-725.92316	293.47403	533.07434	-703.67816	321.00827	246.18784	-584.97137	359.82135	229.47533	-613.28979	335.00156	183.14584	-575.0965	281.33008	68.097183	-593.32654	336.26102	72.874588	-543.0741	345.06088	31.050684	-590.99261	182.89888	44.064259	-481.86111				201.34428	42.153362	-452.49359	328.5249	580.39911	-1248.5483	292.95309	533.99835	-1279.1146	335.44705	516.90649	-1256.6909	330.46463	278.82596	-1378.381	344.45447	215.29483	-1386.1927	368.85721	264.54507	-1349.0404	350.83917	72.915215	-1424.2223	279.2066	69.47892	-1393.71	354.06766	28.694389	-1377.0115	266.61182	25.599136	-1547.4824	208.83492	36.05468	-1511.9242	230.70441	33.444885	-1534.6326	324.34537	1246.7134	-665.4671	292.54053	1284.9259	-662.87561	299.74048	1295.7084	-723.612	268.09247	1240.6398	-333.90768	323.53989	1253.5524	-1629.0297	271.26971	1273.365	-1707.1097	264.63269	1270.8317	-1635.364	319.13669	1295.49	-1236.5782	324.34009	1284.7208	-1297.1356	342.47925	1252.8691	-1227.2261
300	1.49	112.85597	1530.4513	-996.41449	130.02412	1514.4818	-935.94739	152.96463	1501.069	-1066.5276	249.90424	236.59201	-2082.4885	255.90536	249.80054	137.74919	371.45624	894.7851	-1031.1727	374.37411	893.11804	-959.14227	365.39667	904.1015	-993.9776	311.70621	1328.8009	-986.70001	171.15926	1261.5328	-996.82947	349.98145	1051.8759	-992.99567	241.93137	1335.463	-1133.0861	230.6143	1331.2644	-845.02698	329.97635	581.39471	-733.30536	335.20981	516.20544	-725.6579	294.08765	533.36835	-703.29071	320.93576	246.25513	-584.64685	359.72992	229.58321	-613.07178	335.00589	183.14098	-574.91174	281.31955	68.162361	-593.2774	336.29077	72.893242	-542.98486	345.07089	31.067326	-590.98279	182.91501	44.087284	-481.8627				201.32266	42.245201	-452.46387	328.40054	581.04578	-1249.0173	292.86972	534.42139	-1279.7484	334.98502	517.19067	-1257.3268	330.26367	279.05774	-1379.0909	344.06485	215.37563	-1386.5718	368.47318	264.79327	-1349.5469	350.8085	72.973511	-1424.2753	279.18512	69.485695	-1393.7677	354.06021	28.714296	-1377.0237	266.61588	25.421516	-1547.417	208.87639	36.053654	-1511.9088	230.69768	33.442921	-1534.6296	323.87219	1245.8412	-665.54987	291.91949	1283.8318	-662.7569	299.08054	1294.9948	-723.4469	267.64868	1238.3132	-334.00827	323.19574	1251.5074	-1628.7229	270.96356	1270.0919	-1707.2061	264.2485	1268.1525	-1634.7837	318.33661	1295.1379	-1236.5712	323.67868	1284.1412	-1297.0459	341.99023	1252.598	-1227.017
